<svg id="Layer_1" data-name="Layer 1" xmlns="http://www.w3.org/2000/svg" viewBox="0 0 560 288"><defs><style>.cls-1{fill:#fff;}</style></defs><rect class="cls-1" x="-3.19" y="15.48" width="25.38" height="399.73" transform="translate(-106.4 33.6) rotate(-30)"/><rect class="cls-1" x="24.17" y="-0.36" width="25.38" height="399.3" transform="translate(-94.71 45.13) rotate(-30)"/><rect class="cls-1" x="51.62" y="-16.23" width="25.38" height="399.3" transform="translate(-83.09 56.73) rotate(-30)"/><rect class="cls-1" x="78.34" y="-31.91" width="25.38" height="399.3" transform="translate(-71.68 67.99) rotate(-30)"/><rect class="cls-1" x="106.06" y="-47.33" width="25.38" height="399.3" transform="translate(-60.25 79.78) rotate(-30)"/><rect class="cls-1" x="133.51" y="-63.21" width="25.38" height="399.3" transform="translate(-48.63 91.38) rotate(-30)"/><rect class="cls-1" x="190.78" y="-87.66" width="25.38" height="505.53" transform="translate(-55.29 123.85) rotate(-30)"/><rect class="cls-1" x="218.11" y="-103.48" width="25.38" height="504.98" transform="translate(-43.58 135.36) rotate(-30)"/><rect class="cls-1" x="245.56" y="-119.36" width="25.38" height="504.98" transform="translate(-31.97 146.96) rotate(-30)"/><rect class="cls-1" x="272.25" y="-135.09" width="25.38" height="504.98" transform="translate(-20.53 158.2) rotate(-30)"/><rect class="cls-1" x="300.03" y="-150.4" width="25.38" height="504.98" transform="translate(-9.15 170.04) rotate(-30)"/><rect class="cls-1" x="327.49" y="-166.28" width="25.38" height="504.98" transform="translate(2.47 181.64) rotate(-30)"/><rect class="cls-1" x="401.76" y="-99.35" width="25.38" height="495.56" transform="translate(-18.69 227.11) rotate(-30)"/><rect class="cls-1" x="429.1" y="-115.17" width="25.38" height="495.03" transform="translate(-6.98 238.62) rotate(-30)"/><rect class="cls-1" x="456.55" y="-131.05" width="25.38" height="495.03" transform="translate(4.63 250.22) rotate(-30)"/><rect class="cls-1" x="483.23" y="-146.77" width="25.38" height="495.03" transform="translate(16.07 261.46) rotate(-30)"/><rect class="cls-1" x="511.01" y="-162.1" width="25.38" height="495.03" transform="translate(27.46 273.29) rotate(-30)"/><rect class="cls-1" x="538.46" y="-177.98" width="25.38" height="495.03" transform="translate(39.07 284.89) rotate(-30)"/><rect class="cls-1" x="571.74" y="-196.11" width="25.38" height="505.53" transform="translate(49.97 299.8) rotate(-30)"/><rect class="cls-1" x="599.08" y="-211.94" width="25.38" height="504.98" transform="translate(61.68 311.32) rotate(-30)"/><rect class="cls-1" x="626.53" y="-227.81" width="25.38" height="504.98" transform="translate(73.3 322.91) rotate(-30)"/><rect class="cls-1" x="653.21" y="-243.54" width="25.38" height="504.98" transform="translate(84.74 334.15) rotate(-30)"/><rect class="cls-1" x="681" y="-258.86" width="25.38" height="504.98" transform="translate(96.12 345.99) rotate(-30)"/></svg>